<svg id="SvgjsSvg1001" width="288" height="288" xmlns="http://www.w3.org/2000/svg" version="1.1" xmlns:xlink="http://www.w3.org/1999/xlink" xmlns:svgjs="http://svgjs.com/svgjs"><defs id="SvgjsDefs1002"></defs><g id="SvgjsG1008"><svg xmlns="http://www.w3.org/2000/svg" viewBox="0 0 512 512" width="288" height="288"><path fill="#adb7bc" d="m42.114-.26 3.67-.021 4.006.007 4.275-.016c3.913-.014 7.825-.016 11.737-.015 4.22-.002 8.442-.015 12.663-.027 9.227-.022 18.454-.03 27.682-.035q8.643-.006 17.288-.017a45873 45873 0 0 1 57.182-.041h3.113l3.118-.001c16.67-.004 33.34-.03 50.01-.068q25.68-.057 51.36-.058c9.61 0 19.22-.009 28.83-.038q12.275-.038 24.549-.017c4.173.008 8.346.007 12.52-.016q5.737-.03 11.473.003c2.03.005 4.061-.014 6.091-.035C379.661-.582 385.24.72 392 5l2.75 1.688c5.062 5.202 9.42 12.063 9.327 19.464l-.022 2.561-.04 2.8-.057 6.07-.034 3.257c-.06 6.894-.061 13.788-.072 20.682a1627 1627 0 0 1-.13 18.158 1051 1051 0 0 0-.074 17.576 344 344 0 0 1-.071 6.677c-.648 13.862-.648 13.862 5.576 25.63a70 70 0 0 0 4.8 4.011c10.363 8.25 18.716 24.474 21.047 37.426l2.027-.543c14.902-2.291 31.82 4.607 43.973 12.543 4.31 3.348 8.163 7.13 12 11l2.023 1.922c13.082 13.377 17.28 32.748 17.292 50.714-.25 19.734-7.935 36.507-21.553 50.696-14.522 13.951-33.337 21.09-53.364 20.863l-2.916-.008c-3.036-.011-6.071-.036-9.107-.062q-3.11-.016-6.223-.027-7.575-.035-15.152-.098l.014 2.658q.166 32.051.245 64.102c.026 10.333.06 20.666.118 31q.076 13.512.093 27.025c.007 4.768.022 9.536.059 14.304q.05 6.74.037 13.479 0 2.466.03 4.931c.103 9.204-.325 16.582-5.596 24.501l-1.687 2.75c-5.913 5.752-12.802 9.369-21.05 9.387l-3.646.015-4.026.002-4.261.013q-5.87.017-11.74.022-6.326.01-12.65.029-15.286.034-30.573.052l-8.637.011a74896 74896 0 0 1-66.07.07l-3.12.001c-16.668.013-33.336.046-50.004.088q-25.675.063-51.35.071c-9.608.004-19.217.015-28.825.048q-12.28.044-24.559.028a1741 1741 0 0 0-12.52.022q-5.744.033-11.486.003c-2.026-.004-4.05.017-6.076.038-14.001-.12-24.687-4.845-34.65-14.525-7.7-8.195-12.393-18.416-12.33-29.699l-.012-2.26c-.01-2.501-.006-5.003-.002-7.504l-.016-5.433c-.014-4.978-.016-9.956-.015-14.934-.002-5.368-.015-10.736-.027-16.105-.022-11.74-.03-23.48-.035-35.22q-.006-10.996-.017-21.993-.032-30.452-.04-60.903v-3.937l-.001-7.902v-3.962l-.001-3.967c-.004-21.207-.03-42.415-.068-63.622q-.057-32.666-.058-65.33c0-12.226-.009-24.451-.038-36.677a8220 8220 0 0 1-.017-31.233c.008-5.31.007-10.62-.016-15.93q-.03-7.3.003-14.6.005-2.632-.016-5.264c-.12-15.856 3.18-27.917 14.511-39.58C21.512 4.895 31.518-.24 42.114-.26" class="svgShape colorfec56b-0 selectable"></path><path d="m42.114-.26 3.67-.021 4.006.007 4.275-.016c3.913-.014 7.825-.016 11.737-.015 4.22-.002 8.442-.015 12.663-.027 9.227-.022 18.454-.03 27.682-.035q8.643-.006 17.288-.017a45873 45873 0 0 1 57.182-.041h3.113l3.118-.001c16.67-.004 33.34-.03 50.01-.068q25.68-.057 51.36-.058c9.61 0 19.22-.009 28.83-.038q12.275-.038 24.549-.017c4.173.008 8.346.007 12.52-.016q5.737-.03 11.473.003c2.03.005 4.061-.014 6.091-.035C379.661-.582 385.24.72 392 5l2.75 1.688c5.062 5.202 9.42 12.063 9.327 19.464l-.022 2.561-.04 2.8-.057 6.07-.034 3.257c-.06 6.894-.061 13.788-.072 20.682a1627 1627 0 0 1-.13 18.158 1051 1051 0 0 0-.074 17.576 344 344 0 0 1-.071 6.677c-.648 13.862-.648 13.862 5.576 25.63a70 70 0 0 0 4.8 4.011c10.363 8.25 18.716 24.474 21.047 37.426l2.027-.543c14.902-2.291 31.82 4.607 43.973 12.543 4.31 3.348 8.163 7.13 12 11l2.023 1.922c13.082 13.377 17.28 32.748 17.292 50.714-.25 19.734-7.935 36.507-21.553 50.696-14.522 13.951-33.337 21.09-53.364 20.863l-2.916-.008c-3.036-.011-6.071-.036-9.107-.062q-3.11-.016-6.223-.027-7.575-.035-15.152-.098l.014 2.658q.166 32.051.245 64.102c.026 10.333.06 20.666.118 31q.076 13.512.093 27.025c.007 4.768.022 9.536.059 14.304q.05 6.74.037 13.479 0 2.466.03 4.931c.103 9.204-.325 16.582-5.596 24.501l-1.687 2.75c-5.913 5.752-12.802 9.369-21.05 9.387l-3.646.015-4.026.002-4.261.013q-5.87.017-11.74.022-6.326.01-12.65.029-15.286.034-30.573.052l-8.637.011a74896 74896 0 0 1-66.07.07l-3.12.001c-16.668.013-33.336.046-50.004.088q-25.675.063-51.35.071c-9.608.004-19.217.015-28.825.048q-12.28.044-24.559.028a1741 1741 0 0 0-12.52.022q-5.744.033-11.486.003c-2.026-.004-4.05.017-6.076.038-14.001-.12-24.687-4.845-34.65-14.525-7.7-8.195-12.393-18.416-12.33-29.699l-.012-2.26c-.01-2.501-.006-5.003-.002-7.504l-.016-5.433c-.014-4.978-.016-9.956-.015-14.934-.002-5.368-.015-10.736-.027-16.105-.022-11.74-.03-23.48-.035-35.22q-.006-10.996-.017-21.993-.032-30.452-.04-60.903v-3.937l-.001-7.902v-3.962l-.001-3.967c-.004-21.207-.03-42.415-.068-63.622q-.057-32.666-.058-65.33c0-12.226-.009-24.451-.038-36.677a8220 8220 0 0 1-.017-31.233c.008-5.31.007-10.62-.016-15.93q-.03-7.3.003-14.6.005-2.632-.016-5.264c-.12-15.856 3.18-27.917 14.511-39.58C21.512 4.895 31.518-.24 42.114-.26M24.473 30.742c-3.496 5.36-4.848 9.798-4.842 16.179l-.01 2.01c-.009 2.213.005 4.427.018 6.64l-.008 4.82c-.006 4.408.006 8.816.02 13.224.014 4.756.01 9.512.007 14.268q-.001 12.356.025 24.713c.024 11.91.032 23.821.036 35.731q.01 28.987.055 57.973a71482 71482 0 0 1 .075 77.234A193245 193245 0 0 0 20 428l2.922-1.277 3.828-1.66 1.922-.842c5.408-2.338 9.536-3.336 15.406-3.537l3.516-.127 3.656-.12 3.703-.13q4.523-.159 9.047-.307l.004-1.84a163529 163529 0 0 1 .313-120.932l.008-2.606q.059-20.898.102-41.796.047-21.438.116-42.874.042-13.232.064-26.464.016-9.07.052-18.137.022-5.235.025-10.47.008-5.674.038-11.346l-.006-3.352.022-3.07.007-2.645c.293-2.839.963-4.925 2.255-7.468 3.672-2.448 6.731-2.714 11-2 2.969 2.207 3.829 3.486 5 7 .095 1.62.134 3.244.139 4.867l.016 3.058.003 3.37.015 3.571q.018 4.916.028 9.83.013 5.298.034 10.596.033 9.18.056 18.362.035 13.275.08 26.548.071 21.535.132 43.071a119778 119778 0 0 0 .174 57.384Q83.847 366.33 84 420l1.873.002q22.573.022 45.145.13c7.278.035 14.555.06 21.833.064q9.516.003 19.031.065c3.359.02 6.717.033 10.075.025 3.752-.005 7.503.021 11.254.055l3.364-.027c8.405.126 8.405.126 12.112 3.098 3.137 3.51 3.137 3.51 3.063 6.588l.047 1.938c-1.278 3.306-3.864 5.233-6.797 7.062-3.287.617-3.287.617-6.918.606l-2.036.014c-2.24.01-4.476-.015-6.715-.04q-2.415 0-4.83.008-5.194.007-10.387-.027c-5.481-.034-10.962-.03-16.443-.02-12.628.017-25.257-.016-37.885-.049-11.567-.03-23.133-.049-34.699-.028a2074 2074 0 0 1-16.324-.042c-3.395-.016-6.79-.012-10.185-.002q-2.35 0-4.7-.026c-9.985-.107-18.379.506-26.008 7.581-5.332 5.604-7.983 11.059-8.37 18.838.22 7.314 2.464 12.82 7.367 18.257 8.361 7.776 15.64 8.37 26.728 8.324q2.088.007 4.176.019c3.815.016 7.63.014 11.444.008 4.118-.002 8.236.012 12.354.025q12.094.028 24.19.023a14745 14745 0 0 1 25.32.017l2.847.003c17.764.019 35.528.018 53.292.01 16.255-.005 32.51.016 48.766.05q25.036.05 50.072.043c9.37-.002 18.742.003 28.113.028q11.962.033 23.926.006c4.07-.01 8.139-.01 12.208.01q5.588.028 11.175-.008c1.987-.006 3.973.012 5.96.031 7.16.076 7.16.076 13.341-3.073 2.859-3.329 3.346-4.768 3.335-9.036v-2.79l-.016-3.018-.005-3.085c-.005-3.26-.018-6.521-.03-9.782q-.008-3.31-.014-6.621-.017-8.127-.049-16.254l-3.763.034q-17.546.151-35.093.225c-6.014.026-12.028.062-18.042.118q-8.704.08-17.41.097-3.322.015-6.644.055c-3.1.036-6.2.04-9.3.039l-2.78.054c-4.524-.037-6.367-.151-10.038-3.026-2.963-3.985-2.625-5.733-1.93-10.596 2.207-2.969 3.486-3.829 7-5a242 242 0 0 1 8.599-.126l2.662-.006q2.862-.006 5.726-.006c4.058-.004 8.116-.025 12.174-.045 7.557-.038 15.114-.07 22.672-.067q7.882-.002 15.766-.062 3.003-.015 6.005-.005c2.804.01 5.606-.011 8.409-.04l2.499.031c5.837-.105 8.417-1.466 12.488-5.674 1.692-3.383 1.129-7.227 1.114-10.948v-2.808c0-3.074-.009-6.147-.016-9.22l-.005-6.382q-.006-8.409-.024-16.818-.014-8.576-.02-17.152-.016-16.836-.049-33.672h-4l-.012 3.409c-.022 4.184-.077 8.368-.14 12.552a553 553 0 0 0-.044 5.426c-.009 2.605-.05 5.208-.097 7.812l.012 2.44c-.11 4.247-.356 5.9-3.076 9.349-3.34 2.543-5.752 3.135-9.836 3.189l-2.549.039-2.746.022-2.837.025q-2.97.02-5.943.032c-3.023.017-6.044.061-9.066.105q-2.89.015-5.78.026l-2.727.053c-5.687-.02-8.803-.74-13.159-4.479-1.637-3.273-1.243-6.906-1.316-10.508l-.063-2.547q-.097-4.035-.183-8.07l-.131-5.465q-.161-6.705-.307-13.41l-2.436-.011q-11.472-.057-22.942-.173-5.895-.062-11.79-.087c-3.806-.015-7.612-.05-11.418-.097a451 451 0 0 0-4.314-.024c-13.325-.016-26.583-1.961-38.475-8.358l-2-1.043c-17.475-9.401-29.075-24.49-35.062-43.207-5.69-19.593-2.76-39.544 6.824-57.375 2.943-4.79 6.233-9.365 10.32-13.246 1.521-1.307 1.521-1.307 1.293-3.379l1.797-.836c2.088-1.103 3.649-2.28 5.453-3.789 5.26-4.045 11.195-6.76 17.14-9.64l1.92-.945c1.69-.79 1.69-.79 4.006-1.575 2.808-2.026 3.365-5.229 4.372-8.402 9.13-26.203 28.292-44.167 52.644-56.5C321.307 98.148 349.295 98.033 374 107q2.605 1.03 5.206 2.075l2.722 1.092L384 111q.106-16.102.155-32.207c.016-4.985.037-9.97.071-14.954.033-4.811.05-9.622.059-14.434q.008-2.752.032-5.505c.022-2.571.025-5.142.024-7.713l.032-2.298c-.026-4.493-.56-7.348-3.373-10.889-3.225-2.971-5.386-3.376-9.727-3.383l-3.563-.028-3.918.017q-2.079-.007-4.159-.019c-3.814-.016-7.628-.014-11.442-.008-4.112.002-8.224-.012-12.336-.025-8.058-.02-16.117-.025-24.176-.023a14734 14734 0 0 1-25.313-.017l-2.844-.003c-17.766-.019-35.53-.018-53.296-.01-16.246.005-32.493-.016-48.74-.05q-25.02-.05-50.044-.043c-9.365.002-18.73-.003-28.096-.028a4781 4781 0 0 0-23.928-.006c-4.068.01-8.136.01-12.204-.01q-5.593-.028-11.185.008a461 461 0 0 1-5.936-.031c-10.938.108-18.472 3.006-25.62 11.401" fill="#000000" class="svgShape color000000-1 selectable"></path><path fill="#c4cbcf" d="M386 135c16.449 13.004 25.414 27.822 31.832 47.559 1.396 4.068 2.453 6.234 6.168 8.441 2.247.378 2.247.378 4.633.223l2.695-.057 2.797-.103c15.782-.532 28.849 3.307 40.875 13.812 10.962 10.673 16.939 23.662 17.375 39-.096 12.136-3.676 23.605-11.375 33.125l-1.363 1.848c-8.213 10.526-21.59 17.21-34.637 19.152-5.033.265-10.06.234-15.098.195l-4.333-.008a2915 2915 0 0 1-11.319-.05c-4.542-.024-9.084-.033-13.626-.045-6.875-.019-13.75-.057-20.624-.092v-31c7 6 7 6 9 8 5.129.803 5.129.803 9.74-1.153l1.756-1.613 2.096-1.923a820 820 0 0 0 13.21-12.983q2.48-2.485 4.97-4.963l3.162-3.166 1.499-1.493c3.258-3.281 4.744-5.217 5.05-9.837-.092-5.983-3.094-8.76-7.21-12.775l-2.167-2.221a685 685 0 0 0-7.16-7.158 4753 4753 0 0 1-4.973-5.006 1846 1846 0 0 0-10.467-10.431 1523 1523 0 0 1-13.348-13.408 1614 1614 0 0 0-10.296-10.307 751 751 0 0 1-4.915-4.948 556 556 0 0 0-6.927-6.873l-2.016-2.082c-3.482-3.338-6.115-5.131-11.004-5.503-5.946.452-9.009 3.442-13.02 7.585l-2.221 2.173a627 627 0 0 0-7.142 7.175 3854 3854 0 0 1-5.001 4.98 1685 1685 0 0 0-10.414 10.48c-4.429 4.49-8.9 8.938-13.384 13.374-3.448 3.42-6.874 6.86-10.294 10.308a869 869 0 0 1-4.94 4.927 611 611 0 0 0-6.858 6.935c-.686.668-1.371 1.337-2.077 2.027-3.354 3.499-5.057 5.786-5.138 10.736.223 3.428.695 5.463 3.22 7.928l1.938 1.97c.77.74 1.539 1.481 2.331 2.245q2.154 2.202 4.305 4.407a765 765 0 0 0 6.367 6.395q2.485 2.48 4.963 4.97l3.166 3.162 1.493 1.499c3.738 3.712 6.028 5.123 11.468 5.133 3.902-.987 6.072-3.886 8.672-6.816L319 267h1v31c-15.74.12-15.74.12-22.52.146-4.601.018-9.202.04-13.804.08-3.715.033-7.43.05-11.146.059q-2.112.008-4.224.032c-16.981.19-31.96-3.56-44.603-15.512-10.53-11.158-16.423-25.003-15.984-40.41 1.299-15.68 6.835-27.577 18.281-38.395 8.14-6.68 16.693-10.6 26.836-13.191 2.582-.965 3.56-1.552 5.164-3.809a131 131 0 0 0 2.25-7.875c3.404-12.354 9.202-22.565 17.75-32.125l2.238-2.523c27.909-29.69 72.788-32.14 105.762-9.477" class="svgShape color97b9fc-2 selectable"></path><path fill="#fefefe" d="M212 430h22l3 6c3.103 2.672 4.499 3.017 8.625 2.875 3.909-.985 3.909-.985 6.375-3.875l2-5h23l4 7c3.08 2.053 3.687 2.25 7.157 2.24l2.562.009 2.801-.022h2.957c3.23 0 6.46-.016 9.691-.032l6.713-.008c5.894-.008 11.788-.028 17.681-.05 6.013-.02 12.025-.03 18.038-.04 11.8-.02 23.6-.055 35.4-.097.127 6.441.214 12.882.275 19.324q.038 3.285.102 6.57c.061 3.153.09 6.304.111 9.458l.078 2.955c.002 4.523-.057 7.69-2.972 11.296-3.63 3.355-5.24 3.523-10.075 3.534l-3.55.015-3.936.002-4.154.013q-5.728.017-11.456.022-6.17.01-12.34.029-14.913.034-29.826.052l-8.424.011a71190 71190 0 0 1-64.416.07l-3.043.001c-16.26.013-32.52.046-48.78.088q-25.035.063-50.07.071c-9.373.004-18.745.015-28.117.048q-11.975.044-23.95.028c-4.072-.005-8.144-.002-12.216.022q-5.598.033-11.197.003c-1.98-.004-3.961.017-5.942.038-8.731-.077-15.683-1.569-22.24-7.625-5.319-5.617-7.974-11.056-8.362-18.837.22-7.315 2.464-12.821 7.367-18.258 6.076-5.65 11.877-8.308 20.198-8.295l2.048-.01c2.244-.006 4.488.008 6.733.022q2.426 0 4.85-.007 5.21-.006 10.418.01c5.493.017 10.985.008 16.477-.004 14.628-.03 29.256-.029 43.885-.01 9.618.012 19.236.01 28.854-.019q8.187-.02 16.375.017c3.396.01 6.792 0 10.188-.017q2.36-.005 4.719.016c2.15.018 4.299.006 6.45-.014l3.642.003c4.49-.848 6.123-2.35 9.296-5.622z" class="svgShape colorfefefe-3 selectable"></path><path fill="#a4afb5" d="M349 181c3.894 1.584 6.512 4.242 9.411 7.184l1.598 1.597q2.602 2.608 5.194 5.227l3.615 3.623q4.75 4.764 9.489 9.539 4.842 4.87 9.693 9.732 9.507 9.54 19 19.098c-1.837 4.004-4.491 6.72-7.625 9.75l-1.562 1.535A897 897 0 0 1 394 252c-5.227-4.318-9.967-8.942-14.668-13.828-3.273-3.049-5.34-4.046-9.77-4.61-3.617.16-3.617.16-6.243 2.333-3.28 4.391-3.027 7.87-2.978 13.22l-.032 3.076c-.029 3.35-.023 6.698-.016 10.047q-.02 3.488-.046 6.974c-.04 6.114-.05 12.228-.054 18.342-.01 6.24-.047 12.48-.082 18.721A9265 9265 0 0 0 360 343h-20l-.028-9.483c-.034-10.33-.09-20.66-.156-30.99-.04-6.264-.072-12.527-.087-18.792-.015-6.043-.05-12.086-.097-18.129q-.022-3.46-.024-6.923c-.002-3.228-.03-6.454-.062-9.682l.015-2.903c-.026-5.202-.026-5.202-2.47-9.66-2.945-2.025-5.32-3.089-8.974-3.036-4.984 1.407-8.572 6.021-12.117 9.598l-2.64 2.602A582 582 0 0 0 307 252a186 186 0 0 1-14-13c1.584-3.894 4.242-6.512 7.184-9.411l1.597-1.598q2.608-2.602 5.227-5.194l3.623-3.615q4.764-4.75 9.539-9.489 4.87-4.842 9.732-9.693 9.54-9.507 19.098-19" class="svgShape colorfd5c5c-4 selectable"></path><path fill="#040505" d="M73.75 83.625c3.671.02 4.157.298 7.188 2.813L83 89l1 1c.4 4.164.442 6.323-1.875 9.875-2.925 2.925-3.698 3.09-7.937 3.438-3.32-.03-4.178-.307-7.126-2.188-2.64-2.72-3.006-3.627-3.437-7.437C64.092 89.094 65.52 87.886 69 85c1-1 1-1 4.75-1.375" class="svgShape color070503-5 selectable"></path><path fill="#040404" d="M249 421c3.249 2.223 3.896 3.62 4.938 7.438.086 4.905-1.442 6.9-4.625 10.437-3.552 1.728-6.59 1.234-10.313.125-3.306-2.204-3.888-3.59-4.937-7.437-.071-4.045.371-5.484 2.937-8.563 4.09-3.408 6.933-3.382 12-2" class="svgShape color050403-6 selectable"></path></svg></g></svg>