<svg id="SvgjsSvg1001" width="288" height="288" xmlns="http://www.w3.org/2000/svg" version="1.1" xmlns:xlink="http://www.w3.org/1999/xlink" xmlns:svgjs="http://svgjs.com/svgjs"><defs id="SvgjsDefs1002"></defs><g id="SvgjsG1008"><svg xmlns="http://www.w3.org/2000/svg" xmlns:svgjs="http://svgjs.com/svgjs" xmlns:xlink="http://www.w3.org/1999/xlink" viewBox="0 0 288 288" width="288" height="288"><svg xmlns="http://www.w3.org/2000/svg" enable-background="new 0 0 512 512" viewBox="0 0 512 512" width="288" height="288"><path fill="none" d="M48.000000,513.000000 	C32.343117,513.000000 16.686230,513.000000 1.022009,513.000000 
	C1.014673,342.449677 1.014673,171.899338 1.014673,1.000000 
	C48.020317,1.000000 95.041504,1.000000 142.834747,1.296250 
	C142.710007,2.245803 141.887512,3.051952 140.905228,3.529380 
	C127.203560,10.188895 120.951996,21.230623 120.967865,36.332737 
	C121.040192,105.210640 120.997475,174.088669 121.006767,242.966644 
	C121.007172,245.957108 121.112450,248.947586 121.031532,252.278748 
	C119.919868,254.087341 118.801178,255.480164 117.992821,257.034393 
	C105.292908,281.452423 92.603577,305.876038 79.975639,330.331329 
	C73.164337,343.522125 71.777435,357.574493 74.074326,372.027954 
	C75.823860,383.037079 78.899857,393.904694 79.799133,404.964264 
	C81.362526,424.191284 79.118835,443.037933 70.081741,460.581879 
	C63.224270,473.894470 56.706924,487.385406 49.665817,500.598511 
	C47.459682,504.738495 46.290100,508.555084 48.000000,513.000000 
z" class="svgShape colorffffff-1 selectable"></path><path fill="#E4EEF9" d="
M121.168877,251.938049 
	C121.112450,248.947586 121.007172,245.957108 121.006767,242.966644 
	C120.997475,174.088669 121.040192,105.210640 120.967865,36.332737 
	C120.951996,21.230623 127.203560,10.188895 140.905228,3.529380 
	C141.887512,3.051952 142.710007,2.245803 143.303406,1.296250 
	C243.354233,1.000000 343.708466,1.000000 444.225769,1.308337 
	C444.849091,2.061116 445.234375,2.742470 445.780487,2.915187 
	C457.873901,6.739962 467.051575,20.875866 467.044586,32.861790 
	C466.972412,156.410812 467.001312,279.959869 466.992859,403.508942 
	C466.992676,406.335846 466.885040,409.162720 466.485840,412.083374 
	C465.814453,412.529510 465.274597,412.835663 465.185364,413.241028 
	C461.798035,428.630768 446.686249,437.964020 432.313751,437.970673 
	C345.838287,438.010651 259.362793,437.967285 172.907623,437.550781 
	C173.947769,433.328003 175.071289,429.530365 175.968185,425.679962 
	C178.720062,413.865845 179.658844,401.929810 178.557922,389.876587 
	C263.100891,389.908173 347.183929,389.915588 431.266968,389.922485 
	C431.932953,389.922546 432.599487,389.931976 433.264832,389.909546 
	C437.071747,389.781158 439.143738,387.892090 439.126465,384.000031 
	C439.107269,379.673645 439.025482,375.347565 439.007141,370.552460 
	C439.053131,266.124451 439.065216,162.165314 439.067444,58.206184 
	C439.067596,51.649498 437.369141,50.098896 430.149353,50.098186 
	C339.351593,50.089230 248.553818,50.088680 157.756058,50.099277 
	C150.473557,50.100128 148.975601,51.623470 148.974792,58.850288 
	C148.969604,104.832275 148.963547,150.814270 148.981628,196.796249 
	C148.984116,203.123077 149.118881,209.449860 148.788559,215.833588 
	C140.989990,216.188187 137.569931,221.468994 134.505478,227.087051 
	C130.003738,235.340057 125.609123,243.651505 121.168877,251.938049 
M287.096649,19.628046 
	C284.592957,22.394829 283.651001,25.909895 285.965332,28.664459 
	C287.737915,30.774179 291.027740,32.604084 293.739410,32.749016 
	C303.006256,33.244308 312.315857,32.963947 321.609039,32.933590 
	C327.899872,32.913040 331.680908,29.948036 331.706390,25.116007 
	C331.731567,20.337122 327.891907,17.266335 321.631500,17.228170 
	C312.670471,17.173538 303.705841,17.087790 294.749573,17.301798 
	C292.381592,17.358381 290.038696,18.465794 287.096649,19.628046 
M286.477539,433.199341 
	C292.855499,436.404816 298.610565,436.085815 303.161652,431.992706 
	C307.486847,428.102661 309.045074,423.216858 307.407837,417.546112 
	C305.697906,411.623627 300.648010,407.687622 294.596680,407.368073 
	C288.984528,407.071655 283.373199,410.626129 281.089783,415.923920 
	C278.531769,421.858765 280.157928,427.660278 286.477539,433.199341 
M267.963684,32.797771 
	C274.414185,29.656317 276.055267,23.558117 271.465027,19.480936 
	C268.713409,17.036875 265.506042,16.516426 262.304993,18.479248 
	C259.205750,20.379665 257.694275,23.247623 258.691223,26.933578 
	C259.847046,31.206749 262.799927,33.139317 267.963684,32.797771 
z" class="svgShape colore4eef9-2 selectable"></path><path fill="none" d="
M466.827515,411.989624 
	C466.885040,409.162720 466.992676,406.335846 466.992859,403.508942 
	C467.001312,279.959869 466.972412,156.410812 467.044586,32.861790 
	C467.051575,20.875866 457.873901,6.739962 445.780487,2.915187 
	C445.234375,2.742470 444.849091,2.061116 444.694458,1.308337 
	C467.655212,1.000000 490.310425,1.000000 512.982788,1.000000 
	C512.982788,171.568970 512.982788,342.137939 512.982788,513.000000 
	C417.979309,513.000000 322.958313,513.000000 227.166046,512.710693 
	C229.963196,507.081116 233.996582,501.985291 236.969650,496.331848 
	C239.958023,490.649261 244.889420,489.601898 250.289291,487.791473 
	C261.103271,484.165802 271.521729,479.360413 282.464661,475.019714 
	C291.311920,469.935944 299.853943,464.947052 306.588562,457.007568 
	C347.006927,456.997864 386.964874,457.032501 426.922577,456.956543 
	C431.651520,456.947540 436.514343,456.923401 441.080566,455.879974 
	C451.707062,453.451721 459.376587,447.235138 464.128906,437.109009 
	C467.983093,428.896698 466.826111,420.450836 466.827515,411.989624 
z" class="svgShape colorffffff-3 selectable"></path><path fill="#FFE0CC" d="
M282.103485,475.042053 
	C271.521729,479.360413 261.103271,484.165802 250.289291,487.791473 
	C244.889420,489.601898 239.958023,490.649261 236.969650,496.331848 
	C233.996582,501.985291 229.963196,507.081116 226.697388,512.710693 
	C167.645767,513.000000 108.291542,513.000000 48.468658,513.000000 
	C46.290100,508.555084 47.459682,504.738495 49.665817,500.598511 
	C56.706924,487.385406 63.224270,473.894470 70.081741,460.581879 
	C79.118835,443.037933 81.362526,424.191284 79.799133,404.964264 
	C78.899857,393.904694 75.823860,383.037079 74.074326,372.027954 
	C71.777435,357.574493 73.164337,343.522125 79.975639,330.331329 
	C92.603577,305.876038 105.292908,281.452423 117.992821,257.034393 
	C118.801178,255.480164 119.919868,254.087341 121.031532,252.278748 
	C125.609123,243.651505 130.003738,235.340057 134.505478,227.087051 
	C137.569931,221.468994 140.989990,216.188187 149.186432,215.869019 
	C155.093628,215.734039 158.792221,218.146317 161.815842,222.100693 
	C169.178360,231.729630 170.031982,242.505890 167.586639,253.861603 
	C162.690933,276.596222 157.687256,299.307709 152.868118,322.058380 
	C152.501068,323.791229 152.617279,326.191193 153.561356,327.549530 
	C162.871307,340.944305 169.452606,355.598724 174.309662,371.466492 
	C175.576950,377.841858 176.837479,383.847137 178.098007,389.852417 
	C179.658844,401.929810 178.720062,413.865845 175.968185,425.679962 
	C175.071289,429.530365 173.947769,433.328003 172.621155,437.739990 
	C169.214218,444.210876 166.114059,450.091553 162.860703,456.274231 
	C158.005386,462.469971 153.303253,468.363678 147.975082,475.042053 
	C193.364502,475.042053 237.733994,475.042053 282.103485,475.042053 
z" class="svgShape colorffe0cc-4 selectable"></path><path fill="#86DBFE" d="
M174.302917,371.096375 
	C169.452606,355.598724 162.871307,340.944305 153.561356,327.549530 
	C152.617279,326.191193 152.501068,323.791229 152.868118,322.058380 
	C157.687256,299.307709 162.690933,276.596222 167.586639,253.861603 
	C170.031982,242.505890 169.178360,231.729630 161.815842,222.100693 
	C158.792221,218.146317 155.093628,215.734039 149.590271,215.812103 
	C149.118881,209.449860 148.984116,203.123077 148.981628,196.796249 
	C148.963547,150.814270 148.969604,104.832275 148.974792,58.850288 
	C148.975601,51.623470 150.473557,50.100128 157.756058,50.099277 
	C248.553818,50.088680 339.351593,50.089230 430.149353,50.098186 
	C437.369141,50.098896 439.067596,51.649498 439.067444,58.206184 
	C439.065216,162.165314 439.053131,266.124451 438.541260,370.551941 
	C417.892548,371.019684 397.745941,371.012665 377.599304,371.019501 
	C309.833832,371.042450 242.068375,371.070343 174.302917,371.096375 
M294.911835,246.269699 
	C297.744843,246.282349 300.577881,246.305664 303.410889,246.305969 
	C329.576508,246.308746 355.742126,246.322861 381.907745,246.299622 
	C391.706116,246.290909 395.000000,242.919647 395.001526,233.005554 
	C395.002045,229.675003 394.913208,226.344452 395.001068,222.083603 
	C395.002747,187.968460 395.020355,153.853302 394.993988,119.738174 
	C394.988068,112.064301 391.236511,108.013535 383.999268,107.912910 
	C377.678497,107.825020 371.354584,107.960579 364.430542,107.681206 
	C360.717834,105.500328 357.166962,102.960419 353.264313,101.200882 
	C336.552826,93.666405 319.339386,91.313553 303.111359,101.360443 
	C296.258545,105.603088 292.316925,106.013763 285.334503,101.512672 
	C266.031982,89.069664 240.349380,95.520294 222.177429,107.909737 
	C216.187439,107.903229 210.196259,107.819633 204.207748,107.910629 
	C197.412781,108.013870 193.152313,111.997108 193.141647,118.729095 
	C193.086517,153.498947 193.169464,188.269012 193.110947,223.962173 
	C193.116150,227.953827 192.952316,231.954529 193.165726,235.935013 
	C193.494583,242.068604 197.257568,246.164078 203.200562,246.178680 
	C233.464066,246.253036 263.728088,246.123154 294.911835,246.269699 
M224.515045,283.967773 
	C222.351135,283.967773 220.187225,283.966400 218.023315,283.968109 
	C210.152481,283.974274 206.438263,286.444061 206.380188,291.708771 
	C206.323059,296.889984 210.034821,299.326416 218.031723,299.326843 
	C268.800171,299.329651 319.568634,299.328796 370.337097,299.324890 
	C371.834503,299.324799 373.342621,299.382996 374.827301,299.232483 
	C378.987366,298.810822 381.968079,295.601379 381.967255,291.666626 
	C381.966431,287.724701 379.014313,284.512329 374.815063,284.054474 
	C373.168243,283.874908 371.489532,283.970520 369.825348,283.970398 
	C321.720154,283.967224 273.614960,283.967773 224.515045,283.967773 
M276.500000,323.845978 
	C260.687958,323.846008 244.875931,323.840424 229.063889,323.849274 
	C223.904694,323.852173 218.737335,323.722321 213.588928,323.969879 
	C209.429947,324.169800 206.361557,327.576447 206.326996,331.451599 
	C206.292618,335.305756 209.381622,338.641968 213.476974,339.071594 
	C214.795761,339.209900 216.137161,339.151093 217.468216,339.151154 
	C268.566162,339.154175 319.664093,339.154999 370.762024,339.147003 
	C372.424316,339.146729 374.139496,339.296722 375.738373,338.951721 
	C379.627136,338.112549 381.870941,335.506958 381.907593,331.561005 
	C381.944305,327.602814 379.708374,324.966370 375.846100,324.086945 
	C374.094940,323.688171 372.203125,323.854706 370.375061,323.854034 
	C339.416718,323.842987 308.458344,323.845947 276.500000,323.845978 
z" class="svgShape color86dbfe-5 selectable"></path><path fill="#D5E0F2" d="
M163.013901,455.972198 
	C166.114059,450.091553 169.214218,444.210876 172.600861,438.140991 
	C259.362793,437.967285 345.838287,438.010651 432.313751,437.970673 
	C446.686249,437.964020 461.798035,428.630768 465.185364,413.241028 
	C465.274597,412.835663 465.814453,412.529510 466.485840,412.083374 
	C466.826111,420.450836 467.983093,428.896698 464.128906,437.109009 
	C459.376587,447.235138 451.707062,453.451721 441.080566,455.879974 
	C436.514343,456.923401 431.651520,456.947540 426.922577,456.956543 
	C386.964874,457.032501 347.006927,456.997864 306.272278,456.721680 
	C303.522949,456.310333 301.550537,456.056366 299.577881,456.054474 
	C254.056580,456.010468 208.535233,455.993866 163.013901,455.972198 
z" class="svgShape colord5e0f2-6 selectable"></path><path fill="#58CBED" d="
M174.309662,371.466461 
	C242.068375,371.070343 309.833832,371.042450 377.599304,371.019501 
	C397.745941,371.012665 417.892548,371.019684 438.505066,371.020813 
	C439.025482,375.347565 439.107269,379.673645 439.126465,384.000031 
	C439.143738,387.892090 437.071747,389.781158 433.264832,389.909546 
	C432.599487,389.931976 431.932953,389.922546 431.266968,389.922485 
	C347.183929,389.915588 263.100891,389.908173 178.557922,389.876587 
	C176.837479,383.847137 175.576950,377.841858 174.309662,371.466461 
z" class="svgShape color58cbed-7 selectable"></path><path fill="#455F70" d="
M287.390472,19.359367 
	C290.038696,18.465794 292.381592,17.358381 294.749573,17.301798 
	C303.705841,17.087790 312.670471,17.173538 321.631500,17.228170 
	C327.891907,17.266335 331.731567,20.337122 331.706390,25.116007 
	C331.680908,29.948036 327.899872,32.913040 321.609039,32.933590 
	C312.315857,32.963947 303.006256,33.244308 293.739410,32.749016 
	C291.027740,32.604084 287.737915,30.774179 285.965332,28.664459 
	C283.651001,25.909895 284.592957,22.394829 287.390472,19.359367 
z" class="svgShape color455f70-8 selectable"></path><path fill="#435D6E" d="
M286.152832,433.013916 
	C280.157928,427.660278 278.531769,421.858765 281.089783,415.923920 
	C283.373199,410.626129 288.984528,407.071655 294.596680,407.368073 
	C300.648010,407.687622 305.697906,411.623627 307.407837,417.546112 
	C309.045074,423.216858 307.486847,428.102661 303.161652,431.992706 
	C298.610565,436.085815 292.855499,436.404816 286.152832,433.013916 
z" class="svgShape color435d6e-9 selectable"></path><path fill="#466071" d="
M267.578003,32.862190 
	C262.799927,33.139317 259.847046,31.206749 258.691223,26.933578 
	C257.694275,23.247623 259.205750,20.379665 262.304993,18.479248 
	C265.506042,16.516426 268.713409,17.036875 271.465027,19.480936 
	C276.055267,23.558117 274.414185,29.656317 267.578003,32.862190 
z" class="svgShape color466071-10 selectable"></path><path fill="#FECEB4" d="
M162.860703,456.274231 
	C208.535233,455.993866 254.056580,456.010468 299.577881,456.054474 
	C301.550537,456.056366 303.522949,456.310333 305.811737,456.732788 
	C299.853943,464.947052 291.311920,469.935944 282.464661,475.019714 
	C237.733994,475.042053 193.364502,475.042053 147.975082,475.042053 
	C153.303253,468.363678 158.005386,462.469971 162.860703,456.274231 
z" class="svgShape colorfeceb4-11 selectable"></path><path fill="#F2FDFF" d="
M223.128876,107.999504 
	C240.349380,95.520294 266.031982,89.069664 285.334503,101.512672 
	C292.316925,106.013763 296.258545,105.603088 303.111359,101.360443 
	C319.339386,91.313553 336.552826,93.666405 353.264313,101.200882 
	C357.166962,102.960419 360.717834,105.500328 364.772156,108.253220 
	C365.277649,117.443321 365.581299,126.061462 365.578491,134.679489 
	C365.571106,157.421371 365.430725,180.163223 365.036682,202.839340 
	C363.574585,202.126892 362.408264,201.498886 361.265411,200.830643 
	C346.692749,192.309677 331.090881,188.095810 314.473541,192.332947 
	C307.132904,194.204666 300.449646,198.654343 292.966370,202.169281 
	C280.634735,190.897827 264.966705,188.451645 248.579239,192.366776 
	C239.700211,194.488068 231.482040,199.375534 222.878952,202.552277 
	C222.779556,176.196136 222.745468,150.302887 222.771759,124.409683 
	C222.777313,118.939507 223.004044,113.469559 223.128876,107.999504 
z" class="svgShape colorf2fdff-12 selectable"></path><path fill="#425D6E" d="
M222.653152,107.954620 
	C223.004044,113.469559 222.777313,118.939507 222.771759,124.409683 
	C222.745468,150.302887 222.779556,176.196136 222.784882,203.006104 
	C222.770615,206.580399 222.684006,209.240662 222.773056,211.895020 
	C222.964630,217.603912 226.053772,219.456955 231.392136,217.110550 
	C233.517593,216.176331 235.565506,215.050842 237.727631,214.217026 
	C257.890106,206.441238 276.980194,206.637192 293.990662,222.364594 
	C293.990570,224.527084 293.988037,226.257004 293.991974,227.991699 
	C293.998413,227.996475 293.987823,227.986115 293.520386,227.988312 
	C267.432709,227.990753 241.812515,228.005966 216.192352,227.982346 
	C208.187820,227.974976 199.863831,229.346176 193.204239,223.039017 
	C193.169464,188.269012 193.086517,153.498947 193.141647,118.729095 
	C193.152313,111.997108 197.412781,108.013870 204.207748,107.910629 
	C210.196259,107.819633 216.187439,107.903229 222.653152,107.954620 
z" class="svgShape color425d6e-13 selectable"></path><path fill="#2D4456" d="
M293.985535,227.986938 
	C293.988037,226.257004 293.990570,224.527084 294.293457,222.225830 
	C305.569122,211.503494 318.673065,207.438980 333.208893,209.893204 
	C341.275513,211.255157 349.070465,214.455154 356.848572,217.218735 
	C362.255280,219.139740 365.343689,217.563141 365.587311,211.841705 
	C365.713806,208.871674 365.437592,205.884506 365.343323,202.905075 
	C365.430725,180.163223 365.571106,157.421371 365.578491,134.679489 
	C365.581299,126.061462 365.277649,117.443321 365.072906,108.411331 
	C371.354584,107.960579 377.678497,107.825020 383.999268,107.912910 
	C391.236511,108.013535 394.988068,112.064301 394.993988,119.738174 
	C395.020355,153.853302 395.002747,187.968460 394.589966,222.591492 
	C389.559540,227.660980 383.865814,228.122437 377.707153,228.080292 
	C349.801056,227.889328 321.892914,227.990753 293.985535,227.986938 
z" class="svgShape color2d4456-14 selectable"></path><path fill="#405B6C" d="M225.012405 283.967773C273.61496 283.967773 321.720154 283.967224 369.825348 283.970398 371.489532 283.97052 373.168243 283.874908 374.815063 284.054474 379.014313 284.512329 381.966431 287.724701 381.967255 291.666626 381.968079 295.601379 378.987366 298.810822 374.827301 299.232483 373.342621 299.382996 371.834503 299.324799 370.337097 299.32489 319.568634 299.328796 268.800171 299.329651 218.031723 299.326843 210.034821 299.326416 206.323059 296.889984 206.380188 291.708771 206.438263 286.444061 210.152481 283.974274 218.023315 283.968109 220.187225 283.9664 222.351135 283.967773 225.012405 283.967773zM277 323.845886C308.458344 323.845947 339.416718 323.842987 370.375061 323.854034 372.203125 323.854706 374.09494 323.688171 375.8461 324.086945 379.708374 324.96637 381.944305 327.602814 381.907593 331.561005 381.870941 335.506958 379.627136 338.112549 375.738373 338.951721 374.139496 339.296722 372.424316 339.146729 370.762024 339.147003 319.664093 339.154999 268.566162 339.154175 217.468216 339.151154 216.137161 339.151093 214.795761 339.2099 213.476974 339.071594 209.381622 338.641968 206.292618 335.305756 206.326996 331.451599 206.361557 327.576447 209.429947 324.1698 213.588928 323.969879 218.737335 323.722321 223.904694 323.852173 229.063889 323.849274 244.875931 323.840424 260.687958 323.846008 277 323.845886z" class="svgShape color405b6c-15 selectable"></path><path fill="#253847" d="
M293.991974,227.991699 
	C321.892914,227.990753 349.801056,227.889328 377.707153,228.080292 
	C383.865814,228.122437 389.559540,227.660980 394.522034,223.056641 
	C394.913208,226.344452 395.002045,229.675003 395.001526,233.005554 
	C395.000000,242.919647 391.706116,246.290909 381.907745,246.299622 
	C355.742126,246.322861 329.576508,246.308746 303.410889,246.305969 
	C300.577881,246.305664 297.744843,246.282349 294.454346,245.694550 
	C293.993866,239.408310 293.990845,233.697220 293.987823,227.986115 
	C293.987823,227.986115 293.998413,227.996475 293.991974,227.991699 
z" class="svgShape color253847-16 selectable"></path><path fill="#2D4456" d="
M293.520386,227.988312 
	C293.990845,233.697220 293.993866,239.408310 293.994385,245.592087 
	C263.728088,246.123154 233.464066,246.253036 203.200562,246.178680 
	C197.257568,246.164078 193.494583,242.068604 193.165726,235.935013 
	C192.952316,231.954529 193.116150,227.953827 193.157593,223.500595 
	C199.863831,229.346176 208.187820,227.974976 216.192352,227.982346 
	C241.812515,228.005966 267.432709,227.990753 293.520386,227.988312 
z" class="svgShape color2d4456-17 selectable"></path><path fill="#D0E8F1" d="
M365.036682,202.839340 
	C365.437592,205.884506 365.713806,208.871674 365.587311,211.841705 
	C365.343689,217.563141 362.255280,219.139740 356.848572,217.218735 
	C349.070465,214.455154 341.275513,211.255157 333.208893,209.893204 
	C318.673065,207.438980 305.569122,211.503494 294.291046,221.793274 
	C276.980194,206.637192 257.890106,206.441238 237.727631,214.217026 
	C235.565506,215.050842 233.517593,216.176331 231.392136,217.110550 
	C226.053772,219.456955 222.964630,217.603912 222.773056,211.895020 
	C222.684006,209.240662 222.770615,206.580399 222.871674,203.468994 
	C231.482040,199.375534 239.700211,194.488068 248.579239,192.366776 
	C264.966705,188.451645 280.634735,190.897827 292.966370,202.169281 
	C300.449646,198.654343 307.132904,194.204666 314.473541,192.332947 
	C331.090881,188.095810 346.692749,192.309677 361.265411,200.830643 
	C362.408264,201.498886 363.574585,202.126892 365.036682,202.839340 
z" class="svgShape colord0e8f1-18 selectable"></path></svg></svg></g></svg>