<svg xmlns="http://www.w3.org/2000/svg" xmlns:xlink="http://www.w3.org/1999/xlink" xmlns:svgjs="http://svgjs.com/svgjs" id="SvgjsSvg1001" width="288" height="288" version="1.1"><defs id="SvgjsDefs1002"/><g id="SvgjsG1008"><svg xmlns="http://www.w3.org/2000/svg" viewBox="0 0 24 24" width="288" height="288"><g><path fill="#b9c2c6" d="M12 22.542c5.822 0 10.542-4.72 10.542-10.542S17.822 1.458 12 1.458S1.458 6.178 1.458 12S6.178 22.542 12 22.542" class="svgShape colorff808c-1 selectable"/><path fill="#dce0e2" d="M4.546 19.454A10.542 10.542 0 0 1 19.454 4.546z" class="svgShape colorffbfc5-2 selectable"/><path stroke="#161a1b" stroke-linecap="round" stroke-linejoin="round" d="M12 22.542c5.822 0 10.542-4.72 10.542-10.542S17.822 1.458 12 1.458S1.458 6.178 1.458 12S6.178 22.542 12 22.542M7.417 7.417l9.166 9.166m0-9.166l-9.166 9.166" fill="none" class="svgStroke colorStroke191919-3 selectable"/></g></svg></g></svg>