<svg id="SvgjsSvg1001" width="288" height="288" xmlns="http://www.w3.org/2000/svg" version="1.1" xmlns:xlink="http://www.w3.org/1999/xlink" xmlns:svgjs="http://svgjs.com/svgjs"><defs id="SvgjsDefs1002"></defs><g id="SvgjsG1008"><svg xmlns="http://www.w3.org/2000/svg" viewBox="0 0 64 64" width="288" height="288"><circle cx="32" cy="32" r="32" fill="#929fa6" class="svgShape color76c2af-0 selectable"></circle><path fill="#1e2224" d="M47.8,30H40V18c0-2.2-1.8-4-4-4h-8c-2.2,0-4,1.8-4,4v12h-7.8c-2.7,0-3.5,1.9-1.7,4.1l14.3,18.1			c1.8,2.3,4.7,2.3,6.5,0l14.3-18.1C51.3,31.9,50.6,30,47.8,30z" opacity=".2" class="svgShape color231f20-1 selectable"></path><path fill="#ffffff" d="M24,16c0-2.2,1.8-4,4-4h8c2.2,0,4,1.8,4,4v24c0,2.2-1.8,4-4,4h-8c-2.2,0-4-1.8-4-4V16z" class="svgShape colorffffff-2 selectable"></path><path fill="#ffffff" d="M47.8,28c2.7,0,3.5,1.9,1.7,4.1L35.3,50.3c-1.8,2.3-4.7,2.3-6.5,0L14.5,32.1c-1.8-2.3-1-4.1,1.7-4.1H47.8z" class="svgShape colorffffff-3 selectable"></path></svg></g></svg>