<svg xmlns="http://www.w3.org/2000/svg" viewBox="0 0 24 24" width="24" height="24"><path fill="#000" d="M12 .5C5.37.5 0 5.78 0 12.29c0 5.2 3.44 9.6 8.21 11.16.6.11.82-.25.82-.56 0-.27-.01-1.16-.02-2.1-3.34.71-4.04-1.4-4.04-1.4-.55-1.36-1.33-1.72-1.33-1.72-1.09-.72.08-.71.08-.71 1.2.08 1.83 1.21 1.83 1.21 1.07 1.79 2.81 1.27 3.5.97.11-.76.42-1.27.76-1.56-2.67-.3-5.47-1.3-5.47-5.79 0-1.28.47-2.32 1.24-3.14-.12-.3-.54-1.52.12-3.16 0 0 1.01-.32 3.3 1.2.96-.26 1.98-.39 3-.4 1.02 0 2.04.14 3 .4 2.28-1.52 3.29-1.2 3.29-1.2.66 1.64.24 2.86.12 3.16.77.82 1.24 1.86 1.24 3.14 0 4.5-2.81 5.48-5.49 5.78.43.36.81 1.08.81 2.18 0 1.58-.01 2.85-.01 3.24 0 .31.21.68.82.56C20.57 21.88 24 17.48 24 12.29 24 5.78 18.63.5 12 .5z"/></svg>
